<?xml version="1.0" standalone="no"?>
<!DOCTYPE svg PUBLIC "-//W3C//DTD SVG 20010904//EN"
 "http://www.w3.org/TR/2001/REC-SVG-20010904/DTD/svg10.dtd">
<svg version="1.0" xmlns="http://www.w3.org/2000/svg"
 width="4096.000000pt" height="4096.000000pt" viewBox="0 0 4096.000000 4096.000000"
 preserveAspectRatio="xMidYMid meet">

<g transform="translate(0.000000,4096.000000) scale(0.100000,-0.100000)"
fill="#000000" stroke="none">
<path d="M23335 24973 c3 -16 12 -31 18 -35 34 -19 209 -154 284 -219 88 -76
232 -230 307 -329 99 -128 188 -296 242 -453 38 -112 80 -339 87 -471 l2 -50
85 -34 c594 -234 1534 -678 2060 -972 47 -26 126 -69 175 -95 50 -26 123 -65
163 -87 46 -25 72 -35 72 -26 0 21 -37 239 -49 283 -56 225 -106 362 -192 532
-132 259 -329 526 -541 729 -76 73 -283 247 -357 299 -23 17 -61 45 -84 62
-23 18 -47 33 -54 33 -6 0 -13 4 -15 9 -3 8 -109 78 -201 133 -79 46 -186 102
-437 229 -30 15 -91 42 -135 59 -44 17 -93 37 -110 44 -144 61 -205 84 -380
142 -279 92 -639 189 -845 228 -106 21 -103 21 -95 -11z"/>
<path d="M21815 23834 c-130 -7 -387 -35 -459 -49 -310 -61 -514 -126 -725
-231 -325 -160 -589 -379 -797 -657 -41 -56 -108 -145 -148 -197 -66 -86 -118
-161 -341 -488 -38 -56 -143 -209 -232 -340 -89 -130 -206 -302 -260 -382 -54
-80 -175 -257 -269 -395 -93 -137 -219 -322 -279 -410 -60 -88 -133 -196 -163
-240 -31 -44 -208 -305 -395 -580 -187 -275 -362 -530 -389 -567 -80 -109
-226 -204 -371 -242 -86 -22 -282 -38 -382 -31 -178 13 -223 25 -600 170 -110
42 -229 87 -265 100 -222 79 -796 301 -856 331 -133 66 -278 202 -331 313 -22
46 -28 74 -31 155 -8 173 2 197 221 513 482 698 527 769 563 889 22 71 24 246
5 314 -79 278 -388 558 -791 718 -222 88 -447 131 -731 139 -150 5 -196 2
-315 -17 -313 -49 -542 -166 -688 -349 -60 -76 -444 -639 -533 -781 -175 -281
-243 -437 -286 -650 -36 -177 -40 -232 -27 -347 28 -256 111 -480 258 -693
235 -343 574 -642 942 -834 164 -85 230 -113 608 -255 175 -66 329 -124 342
-130 14 -6 81 -31 150 -57 251 -93 358 -133 530 -198 96 -37 270 -102 385
-146 187 -70 388 -146 970 -367 644 -244 998 -317 1555 -317 735 -1 1276 134
1715 427 126 84 214 158 330 278 136 141 164 178 501 674 70 105 168 249 217
320 49 72 127 186 173 255 47 69 122 179 167 245 46 66 141 206 212 310 70
105 152 224 180 265 65 94 360 527 522 765 150 221 457 678 537 800 159 243
271 397 316 438 55 50 129 87 210 108 125 31 350 6 560 -63 84 -27 456 -165
550 -203 19 -8 98 -38 175 -66 77 -29 187 -70 245 -92 58 -21 139 -52 180 -67
41 -16 118 -45 170 -65 52 -20 124 -47 160 -60 36 -13 151 -56 255 -95 105
-40 219 -83 255 -97 114 -42 304 -140 375 -193 119 -89 174 -175 174 -275 1
-93 -8 -108 -368 -630 -30 -44 -70 -102 -89 -130 -142 -206 -384 -316 -698
-316 -178 0 -285 22 -479 96 -77 29 -232 87 -345 130 -113 42 -232 87 -265 99
-33 13 -98 38 -145 55 -47 18 -114 44 -149 57 -208 81 -503 124 -721 105 -256
-21 -438 -112 -554 -275 -134 -188 -91 -397 122 -597 178 -167 359 -254 792
-382 601 -178 1525 -266 2335 -221 155 8 684 61 897 90 933 124 1874 394 2393
686 300 169 420 301 419 463 -2 174 -118 363 -369 603 -232 221 -662 525
-1080 762 -128 73 -272 153 -355 197 -52 28 -151 81 -220 118 -582 311 -1554
747 -2515 1130 -1232 490 -1391 544 -1805 616 -170 29 -651 53 -845 43z m5675
-2586 c19 -6 58 -25 85 -43 213 -136 243 -415 64 -594 -83 -83 -208 -124 -317
-104 -127 24 -230 100 -288 214 -38 77 -45 202 -15 283 62 167 228 276 391
259 25 -2 61 -9 80 -15z"/>
<path d="M9870 23080 c0 -5 3 -9 8 -9 19 3 22 -2 8 -17 -20 -19 -20 -33 -1
-40 8 -4 15 -10 15 -14 0 -5 60 -98 134 -207 226 -336 330 -511 456 -768 301
-617 394 -1130 325 -1789 -9 -82 -18 -152 -20 -157 -3 -4 -20 -78 -39 -166
-19 -87 -39 -171 -45 -187 -7 -16 -9 -31 -6 -34 2 -3 1 -10 -4 -16 -6 -7 -21
-50 -35 -96 -29 -98 -56 -170 -120 -324 -25 -60 -43 -113 -39 -119 3 -6 2 -7
-3 -4 -6 3 -21 -18 -34 -46 -74 -163 -156 -317 -298 -569 -12 -21 -19 -38 -15
-38 4 0 -2 -7 -13 -16 -48 -38 34 2 198 98 95 55 238 137 318 183 132 75 250
143 490 282 47 27 193 112 325 188 407 234 429 247 448 260 17 12 15 15 -17
56 -172 218 -264 388 -329 604 -116 386 -54 807 198 1332 41 84 87 173 104
198 l30 44 -82 59 c-45 32 -171 119 -280 193 -108 74 -253 172 -322 219 -68
47 -181 123 -250 170 -69 47 -217 147 -328 224 -368 252 -717 486 -717 481 0
-3 -9 4 -20 15 -22 22 -40 26 -40 10z m64 -65 c3 -8 1 -15 -4 -15 -6 0 -10 7
-10 15 0 8 2 15 4 15 2 0 6 -7 10 -15z"/>
<path d="M22789 19069 c-207 -308 -473 -508 -837 -630 -128 -43 -419 -104
-551 -115 l-83 -7 33 -16 c30 -14 102 -16 574 -16 l540 0 220 33 c121 18 263
42 315 53 52 11 123 27 157 34 247 54 572 177 910 344 243 120 337 173 326
184 -3 4 -14 2 -25 -4 -10 -5 -24 -7 -31 -2 -8 5 -4 10 13 14 22 7 21 8 -10 8
-39 0 -317 32 -480 56 -131 18 -720 90 -855 104 -55 6 -116 14 -136 17 -36 6
-38 5 -80 -57z"/>
</g>
</svg>
